<svg width="100" height="98" fill="none" xmlns="http://www.w3.org/2000/svg"><path fill-rule="evenodd" clip-rule="evenodd" d="M93.109 97.495H6.89A6.896 6.896 0 010 90.607v-4a6.897 6.897 0 016.891-6.888h31.998a1.11 1.11 0 011.11 1.11v3.332H60v-3.326a1.11 1.11 0 011.11-1.11h32a6.897 6.897 0 016.89 6.888v4a6.903 6.903 0 01-6.891 6.888v-.006zM6.888 81.94a4.671 4.671 0 00-4.665 4.668v4a4.671 4.671 0 004.665 4.668h86.218a4.674 4.674 0 004.668-4.668v-4a4.674 4.674 0 00-4.668-4.668H62.221v3.347a1.106 1.106 0 01-1.11 1.11H38.886a1.11 1.11 0 01-1.11-1.11V81.94H6.888zm16.998-65.831a8.054 8.054 0 118.049-8.055 8.063 8.063 0 01-8.057 8.055h.008zm0-13.89a5.834 5.834 0 100 11.67 5.834 5.834 0 000-11.67z" fill="#F83718"/><path fill-rule="evenodd" clip-rule="evenodd" d="M91.11 81.939H7.778a1.11 1.11 0 01-1.113-1.11V33.663a11.458 11.458 0 0111.446-11.444H80.78a11.459 11.459 0 0111.443 11.444v47.172a1.112 1.112 0 01-1.113 1.11v-.006zm-82.221-2.22h81.107V33.663a9.23 9.23 0 00-9.217-9.215H18.112a9.232 9.232 0 00-9.223 9.22v46.05zm67.777-63.331a5.559 5.559 0 115.559-5.559 5.565 5.565 0 01-5.559 5.559zm0-8.889a3.333 3.333 0 10.03 6.666 3.333 3.333 0 00-.03-6.666z" fill="#F83718"/><path fill-rule="evenodd" clip-rule="evenodd" d="M91.108 76.383H7.778a1.114 1.114 0 110-2.223h83.33a1.113 1.113 0 010 2.223zM28.906 46.011a4.179 4.179 0 004.122-4.053v-5.17H24.68v5.045a4.179 4.179 0 004.119 4.175h.11l-.003.003zm-2.662-11.455h7.286l6.502-10.117-3.671.003-10.117 10.114zm16.428-10.114L36.17 34.556h7.642l2.17-10.117-3.31.003zm.929 12.337H35.25v5.178a4.174 4.174 0 007.143 2.918 4.175 4.175 0 001.208-2.96V36.78zm4.651-12.337l-2.166 10.114h7.826L51.745 24.44l-3.493.003zm7.933 10.114h7.639l-6.5-10.117-3.308.003 2.169 10.114zm8.565 2.223h-8.351v5.045a4.175 4.175 0 108.35.077v-5.134.012zm-4.785-12.337l6.5 10.114h7.288L63.636 24.439l-3.671.003z" fill="#F83718"/><path fill-rule="evenodd" clip-rule="evenodd" d="M60.575 48.234a6.392 6.392 0 00-10.574 0 6.396 6.396 0 00-10.577 0 5.421 5.421 0 00-9.461-.095v16.302h40.064V48.139a5.422 5.422 0 00-9.464.095h.012zm-31.779-2.223c2.238-.027 4.155-1.822 4.232-4.05v-5.17H24.68v5.045a4.179 4.179 0 004.119 4.175h-.003zm42.299 0a4.27 4.27 0 004.229-4.175V36.79H66.97v5.045a4.178 4.178 0 004.14 4.176h-.015z" fill="#F83718"/><path fill-rule="evenodd" clip-rule="evenodd" d="M54.173 36.779h-8.35v5.178a4.176 4.176 0 108.35-.118v-5.06z" fill="#F83718"/></svg>