<svg width="100" height="101" fill="none" xmlns="http://www.w3.org/2000/svg"><path fill-rule="evenodd" clip-rule="evenodd" d="M60.095 85.75a1.11 1.11 0 01-.653-.212l-9-6.542-9.002 6.542a1.11 1.11 0 01-1.706-1.255l3.437-10.582-9-6.539a1.11 1.11 0 01.652-2.01H45.95l3.437-10.58a1.11 1.11 0 012.111 0l3.44 10.58h11.124a1.11 1.11 0 01.653 2.01l-9 6.54 3.437 10.581a1.11 1.11 0 01-.405 1.243 1.095 1.095 0 01-.652.225zm19.91-54.858H21.11a1.117 1.117 0 01-1.083-.866 1.105 1.105 0 01.002-.497L26.698.862a1.11 1.11 0 011.08-.86h45.559a1.108 1.108 0 011.084.86l6.668 28.667a1.107 1.107 0 01-1.084 1.363zm-57.49-2.225H78.61L72.46 2.222H28.655l-6.141 26.445z" fill="#F83718"/><path fill-rule="evenodd" clip-rule="evenodd" d="M71.974 30.892H29.155a1.114 1.114 0 01-1.092-1.311L33.249.913A1.11 1.11 0 0134.345 0h32.452a1.114 1.114 0 011.096.913l5.186 28.67a1.113 1.113 0 01-1.093 1.309h-.012zm-41.501-2.225h40.171l-4.79-26.445H35.26l-4.788 26.445z" fill="#F83718"/><path fill-rule="evenodd" clip-rule="evenodd" d="M63.481 30.892H37.637a1.107 1.107 0 01-1.104-1.234L39.662.991A1.113 1.113 0 0140.766 0h19.586a1.114 1.114 0 011.105.991l3.129 28.667a1.11 1.11 0 01-1.105 1.234zm-24.607-2.225h23.355L59.34 2.222H41.749l-2.875 26.445z" fill="#F83718"/><path fill-rule="evenodd" clip-rule="evenodd" d="M55.16 30.892h-9.2a1.111 1.111 0 01-1.111-1.156L45.962 1.07A1.111 1.111 0 0147.07 0h6.974a1.11 1.11 0 011.11 1.069l1.115 28.667a1.112 1.112 0 01-1.108 1.156zm-8.048-2.225H54L52.972 2.222h-4.836l-1.024 26.445z" fill="#F83718"/><path fill-rule="evenodd" clip-rule="evenodd" d="M65.718 45.058a1.111 1.111 0 01-.782-1.901l12.37-12.277H23.81l12.277 12.193a1.112 1.112 0 01-1.566 1.578L20.319 30.557a1.112 1.112 0 01.781-1.902h58.892a1.11 1.11 0 01.781 1.902L66.5 44.758c-.21.2-.491.307-.781.3z" fill="#F83718"/><path fill-rule="evenodd" clip-rule="evenodd" d="M50.449 100.895a31.11 31.11 0 01-30.52-37.181 31.113 31.113 0 0161.63 6.068 31.14 31.14 0 01-31.11 31.113zm0-60.002a28.892 28.892 0 1028.889 28.889 28.922 28.922 0 00-28.89-28.89z" fill="#F83718"/><path fill-rule="evenodd" clip-rule="evenodd" d="M72.95 70.893a1.107 1.107 0 01-1.11-1.111 21.415 21.415 0 00-21.391-21.388 1.114 1.114 0 010-2.225 23.655 23.655 0 0123.613 23.613 1.114 1.114 0 01-1.111 1.11zM93.332 27.78a6.669 6.669 0 116.669-6.667 6.676 6.676 0 01-6.669 6.668zm0-11.114a4.446 4.446 0 100 8.893 4.446 4.446 0 000-8.893zM8.893 61.116a8.89 8.89 0 118.887-8.89 8.902 8.902 0 01-8.887 8.89zm0-15.57a6.669 6.669 0 106.665 6.668 6.674 6.674 0 00-6.665-6.656v-.012z" fill="#F83718"/></svg>