<svg width="101" height="98" fill="none" xmlns="http://www.w3.org/2000/svg"><path fill-rule="evenodd" clip-rule="evenodd" d="M93.612 97.507H7.391A6.896 6.896 0 01.5 90.619v-4a6.897 6.897 0 016.891-6.888h31.998a1.113 1.113 0 011.113 1.112v3.333h20V80.84a1.112 1.112 0 011.112-1.11h31.998a6.894 6.894 0 016.888 6.888v4.001a6.896 6.896 0 01-6.888 6.888zM7.391 81.953a4.674 4.674 0 00-4.668 4.668v4.001a4.671 4.671 0 004.668 4.665h86.221a4.671 4.671 0 004.668-4.665v-4a4.674 4.674 0 00-4.668-4.669H62.724v3.333a1.113 1.113 0 01-1.11 1.113H39.39a1.109 1.109 0 01-1.11-1.113v-3.333H7.391zM24.39 16.115a8.058 8.058 0 118.055-8.055 8.067 8.067 0 01-8.055 8.055zm0-13.89a5.834 5.834 0 105.835 5.835 5.837 5.837 0 00-5.835-5.828v-.006z" fill="#F83718"/><path fill-rule="evenodd" clip-rule="evenodd" d="M91.611 81.953H8.278a1.11 1.11 0 01-1.11-1.112V33.675A11.458 11.458 0 0118.615 22.23H81.28a11.458 11.458 0 0111.443 11.447v47.166a1.113 1.113 0 01-1.113 1.11zM9.388 79.731H90.5V33.678a9.232 9.232 0 00-9.223-9.224H18.61a9.233 9.233 0 00-9.223 9.224V79.73zm67.777-63.319a5.559 5.559 0 115.555-5.559 5.564 5.564 0 01-5.555 5.559zm0-8.889a3.333 3.333 0 103.332 3.333 3.334 3.334 0 00-3.332-3.348v.015z" fill="#F83718"/><path fill-rule="evenodd" clip-rule="evenodd" d="M91.612 73.341H8.278a1.112 1.112 0 010-2.223h83.334a1.113 1.113 0 110 2.223z" fill="#F83718"/><path d="M36.056 47.786h-6.665v16.667h6.665V47.786z" fill="#F83718"/><path fill-rule="evenodd" clip-rule="evenodd" d="M38.28 46.676v17.776h6.665V44.454h-6.666v2.223zm17.779-6.668v24.445h6.668V37.78H56.06v2.158a.447.447 0 010 .071zm8.886-3.333v27.778h6.666V34.455h-6.666v2.22zm-17.777 7.036v20.742h6.666V41.12h-6.666v2.59z" fill="#F83718"/></svg>