<svg width="83" height="82" fill="none" xmlns="http://www.w3.org/2000/svg"><path fill-rule="evenodd" clip-rule="evenodd" d="M69.011 45.56l-5.662-.019a.871.871 0 110-1.743l5.66.02a11.257 11.257 0 000-22.512c-.2 0-.41 0-.646.019a.87.87 0 01-.83-.485 13.687 13.687 0 00-19.66-5.454.869.869 0 01-1.07-.098.872.872 0 01-.214-.317 19.344 19.344 0 00-37.342 7.087c0 1.069.087 2.135.262 3.19a.874.874 0 01-.668.992 8.828 8.828 0 001.96 17.437l18.298.048a.872.872 0 010 1.743L10.8 45.422a10.574 10.574 0 01-3.124-20.675A21.085 21.085 0 0140.038 4.35a21.087 21.087 0 017.782 9.05 15.44 15.44 0 0121.021 6.17h.173a13 13 0 010 26l-.003-.01z" fill="#F83718"/><path fill-rule="evenodd" clip-rule="evenodd" d="M16.269 22.02a.871.871 0 01-.871-.872A13.966 13.966 0 0129.346 7.196a.874.874 0 110 1.745A12.221 12.221 0 0017.14 21.148a.87.87 0 01-.871.871zM72.94 10.684a5.23 5.23 0 115.234-5.23 5.238 5.238 0 01-5.233 5.23zm0-8.718a3.488 3.488 0 100 6.976 3.488 3.488 0 000-6.976zM11.038 73.463a6.975 6.975 0 116.974-6.975 6.985 6.985 0 01-6.974 6.975zm0-12.209a5.234 5.234 0 105.23 5.233 5.238 5.238 0 00-5.23-5.233z" fill="#F83718"/><rect x="29.714" y="26.073" width="33.01" height="54.612" rx="4.976" fill="#fff" stroke="#F83718" stroke-width="1.699"/><path d="M29.593 69.64h33.01" stroke="#F83718" stroke-width="1.699"/><circle cx="46.34" cy="74.98" r="2.184" fill="#F83718" stroke="#F83718" stroke-width="1.456"/></svg>