<svg width="100" height="100" fill="none" xmlns="http://www.w3.org/2000/svg"><path fill-rule="evenodd" clip-rule="evenodd" d="M31.628 54.422a9.583 9.583 0 119.583-9.582 9.595 9.595 0 01-9.583 9.582zm1.942-11.165l.728-1.371a8.095 8.095 0 00-1-.486 4.368 4.368 0 00-1.233-.294v-1.021h-.699v1.021c-.31.03-.615.104-.905.219-.27.105-.517.261-.728.459a2.208 2.208 0 00-.668 1.638 1.98 1.98 0 00.117.709c.078.201.2.383.354.534.177.168.38.307.602.41a5.7 5.7 0 00.86.328l.485.143v1.342a3.642 3.642 0 01-.709-.165 6.83 6.83 0 01-.616-.243 3.873 3.873 0 01-.452-.242 1.425 1.425 0 01-.218-.168l-.729 1.456a5 5 0 001.229.588c.448.146.911.24 1.38.281v1.185h.697v-1.173c.314-.012.624-.064.925-.152a2.36 2.36 0 00.78-.389 1.9 1.9 0 00.54-.66c.14-.304.21-.636.202-.97a2.089 2.089 0 00-.158-.85 1.7 1.7 0 00-.444-.602 2.544 2.544 0 00-.704-.415 8.32 8.32 0 00-.93-.309l-.322-.08v-1.383c.19.027.378.072.56.136.185.065.355.13.505.201.129.059.254.125.374.2a.793.793 0 01.177.128v-.005zm-2.8-.09a.487.487 0 00.176.398c.157.123.336.215.527.27v-1.243c-.473.041-.709.243-.709.587l.005-.012zm1.96 3.214a.465.465 0 00-.213-.408 2.324 2.324 0 00-.566-.267v1.214c.516-.018.774-.196.774-.534l.005-.005zm29.389-11.995h-12.2a.87.87 0 110-1.743h12.195a.87.87 0 110 1.743h.005zm13.937 4.352H49.92a.871.871 0 110-1.743h26.133a.872.872 0 010 1.743h.003zm-13.937 5.23h-12.2a.871.871 0 110-1.743h12.195a.871.871 0 110 1.743h.005zm13.937 4.357H49.92a.871.871 0 110-1.743h26.133a.872.872 0 010 1.743h.003zm-13.937 5.218h-12.2a.871.871 0 110-1.742h12.195a.871.871 0 110 1.742h.005zm13.937 4.37H49.92a.87.87 0 110-1.74h26.133a.872.872 0 110 1.74h.003zM44.184 91.01h-8.199a.876.876 0 01-.869-.796.864.864 0 01.068-.42l5.226-12.195a.873.873 0 01.801-.527h5.124a.87.87 0 01.86 1.022L45.04 90.288a.871.871 0 01-.857.728v-.007zm-6.886-1.744h6.146l1.845-10.451h-3.51L37.3 89.266zM63.86 91.01h-8.197a.871.871 0 01-.86-.729l-2.15-12.194a.868.868 0 01.857-1.022h5.123a.876.876 0 01.801.527l5.226 12.194a.87.87 0 01-.8 1.214v.01zm-7.47-1.743h6.151l-4.48-10.452h-3.513l1.843 10.452z" fill="#F83718"/><path fill-rule="evenodd" clip-rule="evenodd" d="M55.662 91.01H44.184a.87.87 0 01-.86-1.022l2.154-12.197a.87.87 0 01.857-.728h7.174a.869.869 0 01.857.728l2.153 12.194a.87.87 0 01-.857 1.025zm-10.437-1.743h9.403l-1.844-10.452H47.07l-1.845 10.452z" fill="#F83718"/><path fill-rule="evenodd" clip-rule="evenodd" d="M84.825 78.813H15.02a6.046 6.046 0 01-6.038-6.042v-5.284a.868.868 0 01.871-.869h80.143a.868.868 0 01.872.87v5.283a6.049 6.049 0 01-6.042 6.042zM10.721 68.349v4.413a4.303 4.303 0 004.299 4.298h69.805a4.303 4.303 0 004.299-4.298v-4.413H10.72zm12.196 20.917a4.357 4.357 0 114.357-4.356 4.368 4.368 0 01-4.357 4.356zm0-6.968a2.614 2.614 0 100 5.227 2.614 2.614 0 000-5.227z" fill="#F83718"/><path fill-rule="evenodd" clip-rule="evenodd" d="M89.993 68.35H9.852a.869.869 0 01-.871-.872v-37.1a9.068 9.068 0 019.058-9.058h63.764a9.068 9.068 0 019.061 9.058v37.11a.87.87 0 01-.871.87v-.009zM10.72 66.608h78.398v-36.23a7.325 7.325 0 00-7.318-7.319H18.04a7.325 7.325 0 00-7.318 7.318v36.238-.007zm70.823-48.001a4.691 4.691 0 110-9.383 4.691 4.691 0 010 9.383zm0-7.641a2.952 2.952 0 10-.004 5.905 2.952 2.952 0 00.004-5.905z" fill="#F83718"/><circle cx="32" cy="44" r="6" fill="#F83718"/></svg>