<svg width="100" height="101" fill="none" xmlns="http://www.w3.org/2000/svg"><path fill-rule="evenodd" clip-rule="evenodd" d="M55.86 80.018a.954.954 0 01-.954-.951V58.122a.954.954 0 011.907 0v20.945a.952.952 0 01-.952.951z" fill="#fff"/><path fill-rule="evenodd" clip-rule="evenodd" d="M62.047 80.018H49.665a.953.953 0 01-.952-.951v-3.29a19.049 19.049 0 1114.287 0v3.29a.957.957 0 01-.954.951h.002zm-11.429-1.906h10.475v-2.99a.958.958 0 01.628-.896 17.143 17.143 0 10-11.728 0 .956.956 0 01.625.896v2.99z" fill="#fff"/><path fill-rule="evenodd" clip-rule="evenodd" d="M80.137 60.018l-6.186-.021a.952.952 0 010-1.904l6.183.021a12.296 12.296 0 000-24.59c-.217 0-.448 0-.705.021a.95.95 0 01-.907-.53 14.95 14.95 0 00-21.475-5.957.953.953 0 01-1.402-.453A21.13 21.13 0 0015.142 37.83a.955.955 0 01-.729 1.084 9.642 9.642 0 002.14 19.046l19.987.053a.952.952 0 010 1.904l-19.987-.05a11.549 11.549 0 01-3.412-22.583 23.032 23.032 0 0135.348-22.281 23.034 23.034 0 018.5 9.886 16.864 16.864 0 0122.962 6.74h.188a14.2 14.2 0 110 28.4l-.002-.011z" fill="#fff"/><path fill-rule="evenodd" clip-rule="evenodd" d="M22.524 34.304a.952.952 0 01-.951-.952 15.255 15.255 0 0115.236-15.239.953.953 0 110 1.906 13.349 13.349 0 00-13.333 13.333.948.948 0 01-.952.952zM84.43 21.923a5.713 5.713 0 115.716-5.713 5.721 5.721 0 01-5.716 5.713zm0-9.523a3.81 3.81 0 100 7.62 3.81 3.81 0 000-7.62zM16.812 90.496a7.62 7.62 0 117.617-7.62 7.63 7.63 0 01-7.617 7.62zm0-13.335a5.715 5.715 0 10-.006 11.43 5.715 5.715 0 00.006-11.43zM62.97 84.78H48.749a3.333 3.333 0 010-6.665h14.22a3.333 3.333 0 010 6.665zm-14.224-4.772a1.43 1.43 0 000 2.858H62.97a1.43 1.43 0 000-2.858H48.746z" fill="#fff"/><path fill-rule="evenodd" clip-rule="evenodd" d="M62.969 89.544H48.748a3.337 3.337 0 01-3.167-4.632 3.334 3.334 0 013.167-2.036h14.22a3.336 3.336 0 110 6.668zM48.745 84.77a1.429 1.429 0 100 2.856h14.224a1.43 1.43 0 100-2.856H48.745zm9.971-22.85a3.81 3.81 0 110-7.62 3.81 3.81 0 010 7.62z" fill="#fff"/><path fill-rule="evenodd" clip-rule="evenodd" d="M53.001 61.92a3.81 3.81 0 110-7.62 3.81 3.81 0 010 7.62z" fill="#fff"/></svg>