<svg width="100" height="101" fill="none" xmlns="http://www.w3.org/2000/svg"><path fill-rule="evenodd" clip-rule="evenodd" d="M79.088 93.42H23.78a.99.99 0 01-1.002-.976V9.484a.989.989 0 01.99-.988h55.305a.989.989 0 01.987.989v82.96a.986.986 0 01-.987.985l.014-.01zm-54.323-1.975h53.334V10.453H24.765v80.992z" fill="#fff"/><path fill-rule="evenodd" clip-rule="evenodd" d="M47.228 40.55a.98.98 0 01-.707-.281l-5.935-5.938a3.455 3.455 0 114.886-4.886l1.746 1.743 10.826-10.824a3.458 3.458 0 014.892 4.889L47.927 40.269a.987.987 0 01-.699.282zm-6.66 17.312h-7.902a.989.989 0 01-.988-.989v-7.9a.989.989 0 01.988-.988h7.902a.989.989 0 01.986.989v7.899a.986.986 0 01-.986.989zm-6.915-1.975h5.927V49.96h-5.927v5.927zm30.619-3.95H45.504a.989.989 0 010-1.977h18.768a.989.989 0 110 1.975v.002zm7.902 4.936h-26.67a.988.988 0 010-1.975h26.67a.989.989 0 010 1.975zm-31.606 13.83h-7.902a.985.985 0 01-.988-.986v-7.902a.987.987 0 01.988-.986h7.902a.986.986 0 01.986.986v7.902a.986.986 0 01-.986.986zm23.704-5.927H45.504a.989.989 0 010-1.975h18.768a.987.987 0 011.04.987.989.989 0 01-1.04.988zm7.902 4.939h-26.67a.988.988 0 010-1.975h26.67a.989.989 0 010 1.975zM40.568 83.543h-7.902a.985.985 0 01-.988-.988v-7.9a.989.989 0 01.988-.989h7.902a.99.99 0 01.986.99v7.899a.985.985 0 01-.986.988zm14.821-5.927h-9.877a.989.989 0 110-1.975h9.877a.989.989 0 110 1.975zm6.908 4.939H45.505a.989.989 0 010-1.975h16.792a.99.99 0 011.04.987.989.989 0 01-1.04.988zm26.666-55.312a4.939 4.939 0 110-9.877 4.939 4.939 0 010 9.877zm0-7.899a2.964 2.964 0 100 5.927 2.964 2.964 0 000-5.927zm-76.05 63.21a6.913 6.913 0 116.913-6.913 6.921 6.921 0 01-6.913 6.913zm0-11.852a4.941 4.941 0 104.939 4.939 4.957 4.957 0 00-4.939-4.939z" fill="#fff"/></svg>