<svg width="100" height="101" fill="none" xmlns="http://www.w3.org/2000/svg"><path d="M33.221 19.703h20.548a.936.936 0 01.936.936v16.812a.936.936 0 01-.936.936H33.221a.936.936 0 01-.936-.936V20.64a.932.932 0 01.936-.936z" fill="#fff"/><path fill-rule="evenodd" clip-rule="evenodd" d="M73.387 43.055H33.221a.936.936 0 010-1.87h40.166a.936.936 0 010 1.87zm0 4.668H33.221a.936.936 0 010-1.869h40.166a.935.935 0 010 1.87zM55.64 52.395H33.222a.933.933 0 110-1.866H55.64a.933.933 0 110 1.866zm-.001 4.662H33.22a.936.936 0 010-1.869h22.42a.936.936 0 010 1.87zm.001 4.678H33.222a.933.933 0 110-1.867H55.64a.933.933 0 110 1.867zm-.001 4.672H33.22a.936.936 0 010-1.869h22.42a.936.936 0 010 1.87z" fill="#fff"/><path fill-rule="evenodd" clip-rule="evenodd" d="M65.82 93.494H19.212a.798.798 0 01-.114 0h-.353a8.885 8.885 0 01-8.874-8.874V45.857a.933.933 0 01.933-.931h14.941V9.429a.933.933 0 01.936-.933h54.173a.933.933 0 01.936.933v68.093a15.995 15.995 0 01-15.975 15.972h.005zm-41.636-1.867H65.82a14.126 14.126 0 0014.106-14.105V10.365h-52.31V84.62a8.866 8.866 0 01-3.432 7.007zM11.738 46.793V84.63a7.006 7.006 0 1014.012 0V46.793H11.738zm74.723 46.702a4.672 4.672 0 11-.005-9.343 4.672 4.672 0 01.005 9.343zm0-7.474a2.803 2.803 0 10-.005 5.606 2.803 2.803 0 00.005-5.606z" fill="#fff"/><path fill-rule="evenodd" clip-rule="evenodd" d="M14.538 31.847a6.538 6.538 0 116.539-6.538 6.558 6.558 0 01-6.539 6.538zm0-11.207a4.672 4.672 0 100 9.344 4.672 4.672 0 000-9.344z" fill="#fff"/></svg>