<svg width="100" height="101" fill="none" xmlns="http://www.w3.org/2000/svg"><path fill-rule="evenodd" clip-rule="evenodd" d="M51.5 93.496H21.85a.986.986 0 01-.99-.989V64.832a.987.987 0 011.705-.73.989.989 0 01.27.73v26.686h27.676V47.041a.99.99 0 111.977 0v45.466a.991.991 0 01-.989.989z" fill="#fff"/><path fill-rule="evenodd" clip-rule="evenodd" d="M43.592 65.822H11.96a.988.988 0 01-.865-1.468l9.883-17.792a.995.995 0 01.865-.504h29.65a.986.986 0 01.9 1.39l-7.892 17.786a.987.987 0 01-.904.588h-.005zm-29.947-1.976h29.307l7.028-15.813H22.43l-8.785 15.813zM51.5 85.587H21.85a.989.989 0 010-1.978H51.5a.99.99 0 010 1.978z" fill="#fff"/><path fill-rule="evenodd" clip-rule="evenodd" d="M81.154 93.496h-29.65a.989.989 0 01-.988-.989V47.041a.99.99 0 011.977 0v44.477h27.672V64.832a.989.989 0 011.978 0v27.675a.991.991 0 01-.989.99z" fill="#fff"/><path fill-rule="evenodd" clip-rule="evenodd" d="M91.036 65.82H59.41a.987.987 0 01-.903-.588L50.6 47.443a.986.986 0 01.903-1.39h29.65a.99.99 0 01.863.505L91.9 64.349a.992.992 0 01-.865 1.468v.003zm-30.984-1.975h29.304l-8.78-15.814H53.021l7.03 15.814zm21.102 21.742h-29.65a.989.989 0 010-1.978h29.65a.99.99 0 010 1.978z" fill="#fff"/><path fill-rule="evenodd" clip-rule="evenodd" d="M30.97 47.663a.99.99 0 01-.698-1.687l3.84-3.842a19.336 19.336 0 01-1.212-2.903h-5.423a.991.991 0 01-.989-.99v-9.857a.988.988 0 01.99-.99h5.42a19.04 19.04 0 011.208-2.9l-3.844-3.844a.992.992 0 010-1.4l6.972-6.97a.98.98 0 011.395 0l3.845 3.844c.933-.48 1.903-.885 2.9-1.21v-5.43a.992.992 0 01.99-.988h9.858a.992.992 0 01.988.989v5.423c1 .324 1.97.729 2.904 1.211l3.839-3.84a.991.991 0 011.4 0l6.97 6.97a.986.986 0 010 1.398l-3.842 3.845c.48.932.884 1.903 1.208 2.9h5.429a.988.988 0 01.989.99v9.857a.985.985 0 01-.99.99h-5.42c-.324 1-.73 1.971-1.21 2.905l3.838 3.84a.99.99 0 01-.322 1.612.987.987 0 01-1.078-.215l-4.359-4.359a.99.99 0 01-.161-1.188 17.09 17.09 0 001.604-3.852.989.989 0 01.954-.719h5.166V29.37H68.97a.986.986 0 01-.95-.721 17.338 17.338 0 00-1.605-3.847.99.99 0 01.159-1.186l3.658-3.665-5.573-5.575-3.665 3.665a.99.99 0 01-1.185.16 17.242 17.242 0 00-3.85-1.608.987.987 0 01-.721-.95v-5.17h-7.883v5.175a.986.986 0 01-.722.95 17.388 17.388 0 00-3.844 1.605.99.99 0 01-1.188-.16l-3.658-3.667-5.572 5.572 3.668 3.668a.989.989 0 01.159 1.186 17.333 17.333 0 00-1.605 3.847.987.987 0 01-.95.721h-5.175v7.883h5.167a.988.988 0 01.953.719 17.08 17.08 0 001.607 3.85 1.008 1.008 0 01-.161 1.188l-4.362 4.36a.977.977 0 01-.701.294z" fill="#fff"/><path fill-rule="evenodd" clip-rule="evenodd" d="M51.313 29.104a4.21 4.21 0 104.205 4.215 4.22 4.22 0 00-4.205-4.216z" fill="#fff"/><path fill-rule="evenodd" clip-rule="evenodd" d="M51.31 44.465a11.155 11.155 0 1111.14-11.143 11.168 11.168 0 01-11.14 11.143zm0-4.967a6.187 6.187 0 10-.01-12.375 6.187 6.187 0 00.01 12.375zm33.802-19.141a5.93 5.93 0 115.93-5.93 5.938 5.938 0 01-5.93 5.93zm0-1.826a4.104 4.104 0 100-8.208 4.104 4.104 0 000 8.208zM15.918 33.207a7.908 7.908 0 117.898-7.908 7.918 7.918 0 01-7.908 7.908h.01zm0-1.826a6.082 6.082 0 10-6.08-6.082 6.09 6.09 0 006.08 6.082z" fill="#fff"/></svg>