<svg width="181" height="168" fill="none" xmlns="http://www.w3.org/2000/svg"><ellipse cx="30.267" cy="2.462" rx="2.467" ry="2.462" fill="#fff"/><ellipse cx="45.064" cy="2.462" rx="2.467" ry="2.462" fill="#fff"/><ellipse cx="59.863" cy="2.462" rx="2.467" ry="2.462" fill="#fff"/><ellipse cx="74.664" cy="2.462" rx="2.467" ry="2.462" fill="#fff"/><ellipse cx="89.463" cy="2.462" rx="2.467" ry="2.462" fill="#fff"/><ellipse cx="104.265" cy="2.462" rx="2.467" ry="2.462" fill="#fff"/><ellipse cx="119.062" cy="2.462" rx="2.467" ry="2.462" fill="#fff"/><ellipse cx="30.269" cy="17.231" rx="2.467" ry="2.462" fill="#fff"/><ellipse cx="45.064" cy="17.231" rx="2.467" ry="2.462" fill="#fff"/><ellipse cx="59.863" cy="17.231" rx="2.467" ry="2.462" fill="#fff"/><ellipse cx="74.664" cy="17.231" rx="2.467" ry="2.462" fill="#fff"/><ellipse cx="89.463" cy="17.231" rx="2.467" ry="2.462" fill="#fff"/><ellipse cx="104.265" cy="17.231" rx="2.467" ry="2.462" fill="#fff"/><ellipse cx="119.064" cy="17.231" rx="2.467" ry="2.462" fill="#fff"/><ellipse cx="30.269" cy="32.003" rx="2.467" ry="2.462" fill="#fff"/><ellipse cx="45.064" cy="32.003" rx="2.467" ry="2.462" fill="#fff"/><ellipse cx="59.863" cy="32.003" rx="2.467" ry="2.462" fill="#fff"/><ellipse cx="74.664" cy="32.003" rx="2.467" ry="2.462" fill="#fff"/><ellipse cx="89.463" cy="32.003" rx="2.467" ry="2.462" fill="#fff"/><ellipse cx="104.265" cy="32.003" rx="2.467" ry="2.462" fill="#fff"/><ellipse cx="119.064" cy="32.003" rx="2.467" ry="2.462" fill="#fff"/><ellipse cx="45.064" cy="46.773" rx="2.467" ry="2.462" fill="#fff"/><ellipse cx="59.863" cy="46.773" rx="2.467" ry="2.462" fill="#fff"/><ellipse cx="74.664" cy="46.773" rx="2.467" ry="2.462" fill="#fff"/><ellipse cx="89.463" cy="46.773" rx="2.467" ry="2.462" fill="#fff"/><ellipse cx="104.265" cy="46.773" rx="2.467" ry="2.462" fill="#fff"/><ellipse cx="119.064" cy="46.773" rx="2.467" ry="2.462" fill="#fff"/><ellipse cx="45.064" cy="61.542" rx="2.467" ry="2.462" fill="#fff"/><ellipse cx="59.863" cy="61.542" rx="2.467" ry="2.462" fill="#fff"/><ellipse cx="74.664" cy="61.542" rx="2.467" ry="2.462" fill="#fff"/><ellipse cx="89.463" cy="61.542" rx="2.467" ry="2.462" fill="#fff"/><ellipse cx="104.265" cy="61.542" rx="2.467" ry="2.462" fill="#fff"/><ellipse cx="119.064" cy="61.541" rx="2.467" ry="2.462" fill="#fff"/><ellipse cx="30.269" cy="76.312" rx="2.467" ry="2.462" fill="#fff"/><ellipse cx="45.064" cy="76.312" rx="2.467" ry="2.462" fill="#fff"/><ellipse cx="59.863" cy="76.312" rx="2.467" ry="2.462" fill="#fff"/><ellipse cx="74.664" cy="76.312" rx="2.467" ry="2.462" fill="#fff"/><ellipse cx="89.463" cy="76.312" rx="2.467" ry="2.462" fill="#fff"/><ellipse cx="104.265" cy="76.312" rx="2.467" ry="2.462" fill="#fff"/><ellipse cx="119.064" cy="76.312" rx="2.467" ry="2.462" fill="#fff"/><ellipse cx="30.269" cy="91.083" rx="2.467" ry="2.462" fill="#fff"/><ellipse cx="59.863" cy="91.083" rx="2.467" ry="2.462" fill="#fff"/><ellipse cx="74.664" cy="91.083" rx="2.467" ry="2.462" fill="#fff"/><ellipse cx="89.463" cy="91.083" rx="2.467" ry="2.462" fill="#fff"/><ellipse cx="104.265" cy="91.083" rx="2.467" ry="2.462" fill="#fff"/><ellipse cx="119.064" cy="91.083" rx="2.467" ry="2.462" fill="#fff"/><ellipse cx="30.269" cy="105.852" rx="2.467" ry="2.462" fill="#fff"/><ellipse cx="45.064" cy="105.852" rx="2.467" ry="2.462" fill="#fff"/><ellipse cx="74.664" cy="105.852" rx="2.467" ry="2.462" fill="#fff"/><ellipse cx="89.463" cy="105.852" rx="2.467" ry="2.462" fill="#fff"/><ellipse cx="104.265" cy="105.852" rx="2.467" ry="2.462" fill="#fff"/><ellipse cx="119.064" cy="105.852" rx="2.467" ry="2.462" fill="#fff"/><ellipse cx="30.269" cy="120.623" rx="2.467" ry="2.462" fill="#fff"/><ellipse cx="45.064" cy="120.623" rx="2.467" ry="2.462" fill="#fff"/><ellipse cx="74.664" cy="120.623" rx="2.467" ry="2.462" fill="#fff"/><ellipse cx="89.463" cy="120.623" rx="2.467" ry="2.462" fill="#fff"/><ellipse cx="104.265" cy="120.623" rx="2.467" ry="2.462" fill="#fff"/><ellipse cx="119.064" cy="120.623" rx="2.467" ry="2.462" fill="#fff"/><ellipse cx="30.269" cy="135.393" rx="2.467" ry="2.462" fill="#fff"/><ellipse cx="45.064" cy="135.393" rx="2.467" ry="2.462" fill="#fff"/><ellipse cx="59.863" cy="135.393" rx="2.467" ry="2.462" fill="#fff"/><ellipse cx="74.664" cy="135.393" rx="2.467" ry="2.462" fill="#fff"/><ellipse cx="89.463" cy="135.393" rx="2.467" ry="2.462" fill="#fff"/><ellipse cx="104.265" cy="135.393" rx="2.467" ry="2.462" fill="#fff"/><ellipse cx="119.064" cy="135.393" rx="2.467" ry="2.462" fill="#fff"/><ellipse cx="30.269" cy="150.163" rx="2.467" ry="2.462" fill="#fff"/><ellipse cx="45.064" cy="150.163" rx="2.467" ry="2.462" fill="#fff"/><ellipse cx="59.863" cy="150.163" rx="2.467" ry="2.462" fill="#fff"/><ellipse cx="74.664" cy="150.163" rx="2.467" ry="2.462" fill="#fff"/><ellipse cx="89.463" cy="150.163" rx="2.467" ry="2.462" fill="#fff"/><ellipse cx="104.265" cy="150.163" rx="2.467" ry="2.462" fill="#fff"/><ellipse cx="119.064" cy="150.163" rx="2.467" ry="2.462" fill="#fff"/><ellipse cx="15.467" cy="2.462" rx="2.467" ry="2.462" fill="#fff"/><ellipse cx="15.467" cy="17.231" rx="2.467" ry="2.462" fill="#fff"/><ellipse cx="15.467" cy="32.003" rx="2.467" ry="2.462" fill="#fff"/><ellipse cx="15.467" cy="46.773" rx="2.467" ry="2.462" fill="#fff"/><ellipse cx="15.467" cy="61.542" rx="2.467" ry="2.462" fill="#fff"/><ellipse cx="15.467" cy="76.312" rx="2.467" ry="2.462" fill="#fff"/><ellipse cx="15.467" cy="91.083" rx="2.467" ry="2.462" fill="#fff"/><ellipse cx="15.467" cy="105.852" rx="2.467" ry="2.462" fill="#fff"/><ellipse cx="15.467" cy="120.623" rx="2.467" ry="2.462" fill="#fff"/><ellipse cx="15.467" cy="135.393" rx="2.467" ry="2.462" fill="#fff"/><ellipse cx="15.467" cy="150.163" rx="2.467" ry="2.462" fill="#fff"/><ellipse cx="15.467" cy="164.934" rx="2.467" ry="2.462" fill="#fff"/><ellipse cx="2.513" cy="2.462" rx="2.467" ry="2.462" fill="#fff"/><ellipse cx="2.513" cy="17.231" rx="2.467" ry="2.462" fill="#fff"/><ellipse cx="2.513" cy="32.003" rx="2.467" ry="2.462" fill="#fff"/><ellipse cx="2.513" cy="46.773" rx="2.467" ry="2.462" fill="#fff"/><ellipse cx="2.513" cy="61.542" rx="2.467" ry="2.462" fill="#fff"/><ellipse cx="2.513" cy="76.312" rx="2.467" ry="2.462" fill="#fff"/><ellipse cx="2.513" cy="91.083" rx="2.467" ry="2.462" fill="#fff"/><ellipse cx="2.513" cy="105.852" rx="2.467" ry="2.462" fill="#fff"/><ellipse cx="2.513" cy="120.623" rx="2.467" ry="2.462" fill="#fff"/><ellipse cx="2.513" cy="135.393" rx="2.467" ry="2.462" fill="#fff"/><ellipse cx="2.513" cy="150.163" rx="2.467" ry="2.462" fill="#fff"/><ellipse cx="2.513" cy="164.934" rx="2.467" ry="2.462" fill="#fff"/><ellipse cx="30.269" cy="164.934" rx="2.467" ry="2.462" fill="#fff"/><ellipse cx="45.064" cy="164.934" rx="2.467" ry="2.462" fill="#fff"/><ellipse cx="59.863" cy="164.934" rx="2.467" ry="2.462" fill="#fff"/><ellipse cx="74.664" cy="164.934" rx="2.467" ry="2.462" fill="#fff"/><ellipse cx="89.463" cy="164.934" rx="2.467" ry="2.462" fill="#fff"/><ellipse cx="104.265" cy="164.934" rx="2.467" ry="2.462" fill="#fff"/><ellipse cx="119.064" cy="164.934" rx="2.467" ry="2.462" fill="#fff"/><ellipse cx="133.271" cy="2.462" rx="2.467" ry="2.462" fill="#fff"/><ellipse cx="148.07" cy="2.462" rx="2.467" ry="2.462" fill="#fff"/><ellipse cx="162.867" cy="2.462" rx="2.467" ry="2.462" fill="#fff"/><ellipse cx="177.67" cy="2.462" rx="2.467" ry="2.462" fill="#fff"/><ellipse cx="133.271" cy="17.231" rx="2.467" ry="2.462" fill="#fff"/><ellipse cx="148.074" cy="17.231" rx="2.467" ry="2.462" fill="#fff"/><ellipse cx="162.867" cy="17.231" rx="2.467" ry="2.462" fill="#fff"/><ellipse cx="177.67" cy="17.231" rx="2.467" ry="2.462" fill="#fff"/><ellipse cx="133.271" cy="32.003" rx="2.467" ry="2.462" fill="#fff"/><ellipse cx="148.074" cy="32.003" rx="2.467" ry="2.462" fill="#fff"/><ellipse cx="162.867" cy="32.003" rx="2.467" ry="2.462" fill="#fff"/><ellipse cx="177.67" cy="32.003" rx="2.467" ry="2.462" fill="#fff"/><ellipse cx="133.271" cy="46.773" rx="2.467" ry="2.462" fill="#fff"/><ellipse cx="148.074" cy="46.773" rx="2.467" ry="2.462" fill="#fff"/><ellipse cx="162.867" cy="46.773" rx="2.467" ry="2.462" fill="#fff"/><ellipse cx="177.67" cy="46.773" rx="2.467" ry="2.462" fill="#fff"/><ellipse cx="133.271" cy="61.542" rx="2.467" ry="2.462" fill="#fff"/><ellipse cx="148.074" cy="61.542" rx="2.467" ry="2.462" fill="#fff"/><ellipse cx="162.867" cy="61.542" rx="2.467" ry="2.462" fill="#fff"/><ellipse cx="177.67" cy="61.541" rx="2.467" ry="2.462" fill="#fff"/><ellipse cx="133.271" cy="76.312" rx="2.467" ry="2.462" fill="#fff"/><ellipse cx="148.074" cy="76.312" rx="2.467" ry="2.462" fill="#fff"/><ellipse cx="162.867" cy="76.312" rx="2.467" ry="2.462" fill="#fff"/><ellipse cx="177.67" cy="76.312" rx="2.467" ry="2.462" fill="#fff"/><ellipse cx="133.271" cy="91.083" rx="2.467" ry="2.462" fill="#fff"/><ellipse cx="148.074" cy="91.083" rx="2.467" ry="2.462" fill="#fff"/><ellipse cx="162.867" cy="91.083" rx="2.467" ry="2.462" fill="#fff"/><ellipse cx="177.67" cy="91.083" rx="2.467" ry="2.462" fill="#fff"/><ellipse cx="133.271" cy="105.852" rx="2.467" ry="2.462" fill="#fff"/><ellipse cx="148.074" cy="105.852" rx="2.467" ry="2.462" fill="#fff"/><ellipse cx="162.867" cy="105.852" rx="2.467" ry="2.462" fill="#fff"/><ellipse cx="177.67" cy="105.852" rx="2.467" ry="2.462" fill="#fff"/><ellipse cx="133.271" cy="120.623" rx="2.467" ry="2.462" fill="#fff"/><ellipse cx="148.074" cy="120.623" rx="2.467" ry="2.462" fill="#fff"/><ellipse cx="162.867" cy="120.623" rx="2.467" ry="2.462" fill="#fff"/><ellipse cx="177.67" cy="120.623" rx="2.467" ry="2.462" fill="#fff"/><ellipse cx="133.271" cy="135.393" rx="2.467" ry="2.462" fill="#fff"/><ellipse cx="148.074" cy="135.393" rx="2.467" ry="2.462" fill="#fff"/><ellipse cx="162.867" cy="135.393" rx="2.467" ry="2.462" fill="#fff"/><ellipse cx="177.67" cy="135.393" rx="2.467" ry="2.462" fill="#fff"/><ellipse cx="133.271" cy="150.163" rx="2.467" ry="2.462" fill="#fff"/><ellipse cx="148.074" cy="150.163" rx="2.467" ry="2.462" fill="#fff"/><ellipse cx="162.867" cy="150.163" rx="2.467" ry="2.462" fill="#fff"/><ellipse cx="133.271" cy="164.934" rx="2.467" ry="2.462" fill="#fff"/><ellipse cx="148.074" cy="164.934" rx="2.467" ry="2.462" fill="#fff"/><ellipse cx="162.867" cy="164.934" rx="2.467" ry="2.462" fill="#fff"/></svg>